<svg width="91" height="81" viewBox="0 0 91 81" fill="none" xmlns="http://www.w3.org/2000/svg">
<path d="M3 16.4521L8.19678 75.6947L88.2262 66.3406L71.5967 7.09802L56.0065 47.6324L40.4164 26.8456L27.9443 47.6324L3 16.4521Z" stroke="white" stroke-width="4"/>
<path d="M11.8314 74.6357C11.8314 66.9374 11.8314 59.2392 11.8314 51.541C11.8314 43.0552 9.3591 34.8177 9.06007 26.4447C8.96219 23.704 9.11786 17.611 7.36645 15.3592C5.21049 12.5873 10.5038 21.6435 12.1394 24.7511C14.4006 29.0474 19.6943 29.8426 22.9169 33.0652C25.8868 36.035 28.9903 40.3239 32.6167 42.457C35.9892 44.4408 33.108 37.7719 34.3103 35.0667C35.4916 32.4088 37.4566 29.636 38.2364 26.9066C39.5658 22.2535 47.492 35.9358 49.9377 37.8381C52.2036 39.6004 60.3303 46.6021 60.3303 43.3038C60.3303 30.0561 63.97 23.0632 69.2603 10.9712C70.0852 9.08578 71.4158 1.66391 71.4158 4.73565C71.4158 10.6117 72.5816 15.9551 72.8015 21.6718C73.008 27.0419 77.6326 37.7184 80.8077 41.6872C84.0932 45.7941 84.1522 53.0615 86.3504 58.0075C89.4063 64.8833 87.3519 67.7073 79.7299 67.7073C70.417 67.7073 63.0758 69.1009 54.0948 71.8643C44.8506 74.7087 35.9054 77.407 26.3041 77.407C22.5754 77.407 19.1801 78.7927 15.2956 78.7927C10.0859 78.7927 11.8314 74.1724 11.8314 69.8628C11.8314 57.5007 10.3246 46.0474 3.51733 35.8365" stroke="white" stroke-width="4" stroke-linecap="round"/>
</svg>
