<?xml version="1.0" standalone="no"?>
<!DOCTYPE svg PUBLIC "-//W3C//DTD SVG 20010904//EN"
 "http://www.w3.org/TR/2001/REC-SVG-20010904/DTD/svg10.dtd">
<svg version="1.0" xmlns="http://www.w3.org/2000/svg"
 width="700.000000pt" height="700.000000pt" viewBox="0 0 700.000000 700.000000"
 preserveAspectRatio="xMidYMid meet">
<metadata>
Created by potrace 1.14, written by Peter Selinger 2001-2017
</metadata>
<g transform="translate(0.000000,700.000000) scale(0.100000,-0.100000)"
fill="#000000" stroke="none">
<path d="M0 3500 l0 -3500 3500 0 3500 0 0 3500 0 3500 -3500 0 -3500 0 0
-3500z m3734 2386 c68 -19 103 -42 144 -94 46 -58 64 -99 223 -515 190 -498
228 -597 239 -622 8 -19 243 -634 309 -810 16 -44 78 -204 136 -355 58 -151
108 -279 109 -285 2 -5 7 -19 11 -30 5 -11 35 -90 67 -175 32 -85 63 -164 68
-175 5 -11 16 -38 23 -60 8 -22 87 -231 177 -465 90 -234 173 -452 185 -485
13 -33 31 -80 41 -105 l19 -45 60 0 c150 1 254 -26 308 -80 58 -59 75 -206 36
-329 -16 -54 -24 -67 -37 -63 -9 2 -23 6 -30 8 -8 2 -19 -4 -25 -14 -10 -15
-9 -21 6 -31 16 -12 15 -14 -10 -25 -76 -31 -109 -33 -529 -36 l-431 -3 25 25
c21 21 24 31 19 66 -7 48 -28 67 -74 67 -48 0 -76 -34 -70 -84 4 -25 14 -46
27 -56 20 -15 8 -16 -184 -16 -113 0 -206 4 -206 8 0 5 7 20 16 33 31 47 -6
115 -73 134 -62 18 -131 -56 -113 -121 10 -33 10 -33 -37 -13 -65 27 -94 65
-112 144 l-9 42 38 15 c42 17 61 45 62 91 1 37 -26 83 -53 90 -10 3 -19 9 -19
13 0 19 54 70 95 90 l45 22 26 -21 c37 -29 88 -27 119 4 14 13 25 28 25 33 0
4 78 8 174 7 165 0 176 -1 198 -22 66 -61 153 0 107 76 -10 17 -27 31 -37 31
-15 0 -42 61 -142 315 l-123 315 27 25 c33 30 33 58 0 84 -19 15 -31 18 -49
11 -21 -8 -24 -4 -47 58 l-25 67 -317 3 -317 2 16 22 c51 73 -35 163 -100 105
-33 -30 -39 -70 -14 -102 l20 -25 -206 0 -206 0 15 22 c23 33 20 72 -9 106
-31 37 -66 44 -104 21 -51 -31 -65 -79 -36 -123 l16 -23 -186 0 c-169 0 -203
5 -175 22 6 3 10 24 10 46 0 104 -139 139 -186 47 -16 -31 -18 -74 -4 -83 6
-3 10 -12 10 -19 0 -10 -24 -13 -94 -13 -52 0 -98 -3 -104 -7 -6 -3 -13 -19
-17 -36 -3 -16 -19 -44 -36 -62 -29 -33 -47 -88 -34 -108 6 -10 -32 -140 -41
-140 -2 0 -18 9 -36 20 -83 50 -190 -9 -190 -105 0 -70 53 -125 121 -125 17 0
31 -3 31 -7 0 -5 -19 -63 -42 -130 -33 -93 -48 -125 -66 -135 -36 -19 -65 -84
-59 -131 9 -66 92 -134 153 -124 40 6 93 46 114 86 l21 41 106 -1 c119 -1 133
-4 133 -28 0 -27 51 -69 98 -79 37 -9 49 -7 90 14 l47 24 29 -30 30 -30 -21
-29 c-44 -59 -38 -126 17 -177 31 -30 31 -45 4 -106 -20 -45 -30 -48 -39 -9
-12 54 -80 101 -141 96 -80 -6 -129 -59 -129 -138 0 -29 2 -58 5 -66 4 -12
-17 -15 -118 -16 -109 -2 -122 0 -117 14 25 83 7 146 -56 188 -73 48 -136 38
-198 -32 -35 -40 -46 -74 -37 -113 14 -59 20 -56 -99 -57 l-110 0 4 25 c11 64
4 109 -23 144 -51 67 -125 88 -194 54 -75 -36 -107 -107 -87 -194 l7 -30 -84
2 c-140 3 -127 -2 -115 48 20 89 -43 181 -132 193 -60 8 -105 -4 -140 -37 -17
-17 -31 -27 -32 -23 0 5 -2 16 -4 26 -2 9 0 17 4 17 14 0 51 78 51 107 0 16
-9 46 -20 68 -16 31 -17 42 -8 54 7 9 13 17 14 19 1 2 14 -4 28 -13 32 -21
101 -28 129 -14 39 20 86 71 92 100 4 16 10 28 13 28 4 -1 42 -1 85 0 52 1 79
5 82 13 20 60 120 339 128 360 9 22 16 26 38 21 64 -13 138 43 152 113 8 39
-28 115 -60 129 -13 5 -23 15 -23 21 0 22 183 519 194 526 6 4 23 8 37 8 65 0
98 99 54 164 l-24 35 106 293 c58 161 112 296 119 301 34 20 43 38 39 82 -2
27 4 66 15 97 10 29 87 242 170 473 83 231 174 483 202 560 28 77 68 190 90
250 68 187 70 196 64 203 -4 3 -161 7 -349 7 -352 1 -413 7 -502 45 -61 26
-106 85 -122 160 -10 46 -6 164 7 210 16 58 72 114 130 130 62 17 75 19 155
26 38 3 71 7 72 8 1 1 319 1 705 0 623 -1 710 -3 762 -18z"/>
<path d="M3405 5233 c-15 -43 -40 -114 -56 -158 -15 -44 -62 -179 -105 -300
-90 -260 -179 -515 -235 -675 -23 -63 -60 -171 -84 -240 -55 -160 -169 -482
-188 -537 -9 -23 -23 -53 -32 -67 -51 -78 51 -171 119 -107 21 20 32 21 214
21 115 0 192 -4 192 -10 0 -18 69 -23 95 -6 20 13 57 16 228 16 142 0 207 -4
215 -12 9 -9 20 -9 49 0 24 8 126 13 272 15 210 2 235 4 245 19 25 40 -39 78
-66 40 -12 -18 -17 -11 -55 87 -71 179 -241 618 -298 766 -86 224 -324 838
-334 860 -5 11 -14 36 -21 55 -7 19 -18 49 -25 65 -7 17 -29 75 -50 130 -21
55 -41 104 -45 108 -4 4 -19 -27 -35 -70z"/>
<path d="M2755 4257 c-23 -27 -26 -38 -11 -52 20 -21 39 -19 62 6 19 21 18 21
-5 40 -27 22 -32 23 -46 6z"/>
<path d="M2477 4012 c-24 -27 -21 -58 9 -81 30 -24 63 -16 81 19 28 56 -48
108 -90 62z"/>
<path d="M2749 3776 c-53 -27 -55 -79 -4 -112 22 -14 30 -15 49 -4 13 7 29 23
36 35 10 19 9 28 -6 53 -20 36 -43 44 -75 28z"/>
<path d="M2464 3515 c-29 -29 -28 -73 2 -106 33 -36 99 -23 119 24 34 82 -59
144 -121 82z"/>
<path d="M4535 3471 c-7 -12 12 -24 25 -16 11 7 4 25 -10 25 -5 0 -11 -4 -15
-9z"/>
<path d="M2205 3278 c-15 -14 -28 -38 -32 -60 -5 -32 -1 -41 25 -68 35 -35 84
-40 118 -12 24 19 41 51 38 70 -1 6 -2 19 -3 27 0 9 -12 27 -26 40 -32 33 -84
33 -120 3z"/>
<path d="M2453 3026 c-22 -19 -27 -32 -27 -70 0 -59 26 -88 81 -91 76 -5 112
35 100 112 -8 50 -28 66 -82 69 -35 2 -51 -2 -72 -20z"/>
<path d="M2974 3022 c-45 -36 -41 -113 8 -138 63 -33 128 5 128 74 0 67 -84
107 -136 64z"/>
<path d="M3485 3005 c-48 -47 -16 -125 52 -125 32 0 73 42 73 75 0 14 -11 37
-25 50 -13 14 -36 25 -50 25 -14 0 -37 -11 -50 -25z"/>
<path d="M4033 3012 c-48 -8 -62 -72 -24 -103 36 -30 90 -1 91 47 0 27 -39 61
-67 56z"/>
<path d="M4526 2984 c-21 -20 -20 -37 3 -58 23 -21 49 -11 58 22 4 18 1 29
-12 39 -24 17 -30 16 -49 -3z"/>
<path d="M2208 2793 c-72 -45 -68 -150 7 -189 37 -19 64 -18 102 6 73 44 76
125 7 179 -32 25 -79 27 -116 4z"/>
<path d="M4262 2744 c-27 -18 -28 -54 -4 -84 15 -18 24 -21 49 -16 55 12 66
82 17 105 -32 14 -35 14 -62 -5z"/>
<path d="M4777 2722 c-15 -16 -15 -20 7 -46 l22 -29 22 28 c21 26 21 29 6 47
-21 23 -36 23 -57 0z"/>
<path d="M1949 2547 c-88 -58 -81 -165 15 -214 65 -34 166 30 166 105 0 68
-60 132 -123 132 -13 0 -39 -10 -58 -23z"/>
<path d="M5031 2462 c-12 -23 4 -52 29 -52 25 0 41 30 29 53 -13 22 -46 22
-58 -1z"/>
<path d="M4772 2234 c-28 -19 -28 -57 0 -84 25 -23 54 -19 79 13 18 22 15 41
-9 70 -19 21 -41 22 -70 1z"/>
<path d="M1982 2069 c-82 -17 -130 -106 -98 -182 23 -54 59 -80 119 -85 51 -4
56 -2 95 35 40 38 44 49 45 110 0 76 -83 139 -161 122z"/>
<path d="M5032 1974 c-41 -29 -23 -84 28 -84 31 0 50 17 50 45 0 44 -42 65
-78 39z"/>
<path d="M1725 1827 c-70 -28 -109 -67 -119 -120 -13 -75 50 -161 128 -172
102 -16 201 98 163 187 -21 48 -57 85 -99 103 -21 8 -39 15 -40 14 -2 0 -16
-6 -33 -12z"/>
<path d="M5276 1705 c-15 -23 -15 -26 7 -51 27 -31 58 -27 75 10 9 19 7 28 -9
45 -26 28 -53 27 -73 -4z"/>
<path d="M1424 1566 c-83 -46 -106 -157 -50 -231 87 -114 267 -66 283 77 15
127 -121 217 -233 154z"/>
<path d="M1945 1566 c-110 -49 -117 -220 -11 -270 45 -21 74 -25 116 -14 64
18 110 80 110 150 0 103 -118 177 -215 134z"/>
<path d="M2450 1552 c-69 -35 -96 -138 -51 -201 65 -92 201 -81 246 18 56 125
-72 245 -195 183z"/>
<path d="M4495 1485 c-28 -27 -33 -79 -11 -108 20 -26 72 -38 102 -25 54 25
64 108 17 144 -29 22 -81 17 -108 -11z"/>
<path d="M5055 1493 c-62 -15 -77 -81 -26 -120 33 -25 82 -3 96 44 8 29 -41
82 -70 76z"/>
<path d="M5542 1458 c-7 -7 -12 -22 -12 -35 0 -27 42 -42 65 -23 28 23 11 70
-25 70 -9 0 -21 -5 -28 -12z"/>
<path d="M5284 1222 c-22 -15 -32 -45 -22 -68 27 -58 107 -42 108 22 0 39 -54
68 -86 46z"/>
</g>
</svg>
