<svg width="96" height="123" viewBox="0 0 96 123" fill="none" xmlns="http://www.w3.org/2000/svg">
<path d="M36.0674 63.7299L40.5625 111.25L54.69 94.5535L69.4597 111.25L64.9646 59.2347L36.0674 63.7299Z" stroke="white" stroke-width="4"/>
<circle cx="48.0382" cy="47.2688" r="30.3576" fill="#6A7B76" stroke="white" stroke-width="4"/>
<path d="M46.3802 16.4517C46.3802 13.0377 45.3896 8.16886 48.0362 5.52227C49.9806 3.57786 51.8912 4.04302 53.9977 2.8727C58.0497 0.621605 64.9272 2.88354 64.9272 7.84064C64.9272 10.3663 64.15 11.8346 63.6392 14.1334C63.2912 15.6995 61.0264 17.1794 61.0264 18.7333C61.0264 19.7594 66.4704 16.4142 66.9512 16.0837C70.7812 13.4505 74.3494 13.259 78.8006 12.1462C81.2326 11.5382 83.7513 11.2797 84.9461 13.8022C85.8426 15.6948 85.9774 19.4333 84.7989 21.2357C82.3195 25.0278 79.6714 27.8053 75.2311 29.074C74.0362 29.4154 78.5085 29.0545 78.8374 29.0372C82.1879 28.8608 85.6248 29.1271 88.4053 31.1715C91.8043 33.6708 95.4267 41.806 90.9077 44.9346C88.5384 46.5748 85.5204 46.3727 82.775 46.9217C81.135 47.2497 79.5925 47.5841 77.9174 47.5841C77.0709 47.5841 79.6238 47.4695 80.4566 47.6209C86.1954 48.6643 89.9476 57.0412 90.0981 62.1567C90.1462 63.7923 90.678 66.7255 89.0677 67.7503C85.8908 69.7719 81.5872 70.7678 77.8438 70.7678C75.9652 70.7678 73.3585 71.2864 71.8823 70.1054C70.7598 69.2074 70.2296 68.1224 71.5511 69.7742C74.2861 73.193 75.5255 76.8544 75.5255 81.3661C75.5255 83.9661 74.584 84.0157 72.2135 84.0157C71.1277 84.0157 70.5564 83.7924 69.5639 83.5005C68.5792 83.2108 68.895 92.013 68.9015 92.7003C68.9728 100.182 70.2263 107.452 70.2263 114.854C70.2263 119.134 64.7709 110.235 64.3016 109.555C62.6734 107.194 61.1076 104.828 59.2969 102.599C58.5421 101.671 56.8657 101.169 56.3161 100.207C55.207 98.2665 53.2347 97.4026 51.6794 95.9387C50.7738 95.0864 51.1622 102.748 50.8698 104.035C49.8625 108.467 44.8429 113.373 41.7435 116.473C41.0323 117.184 36.4444 122.317 36.4444 120.116C36.4444 106.709 36.4444 93.3014 36.4444 79.8941C36.4444 73.489 21.4554 82.856 17.5662 81.9917C14.3269 81.2719 11.9609 70.0229 14.5854 68.6335C15.9567 67.9075 17.9965 66.4443 19.5166 66.1679C23.6381 65.4185 19.0634 65.0296 17.1982 64.8431C7.58266 63.8816 2 59.4578 2 49.6081C2 44.0505 8.51446 42.285 13.2607 42.285C16.6815 42.285 16.3176 43.3921 14.291 40.9602C12.6414 38.9806 10.4874 37.2536 9.32311 34.9251C8.0096 32.2981 7.87331 29.4717 6.96794 26.7556C5.46213 22.2382 16.5504 24.7485 19.2222 25.0628C20.8525 25.2546 19.2222 23.251 19.2222 21.7509C19.2222 18.1697 18.5128 12.8187 21.3566 9.97501C22.1476 9.18393 26.5273 9.82781 27.5021 9.82781C30.9228 9.82781 31.1718 13.7669 32.8012 16.1205C33.6671 17.3713 36.4444 20.472 36.4444 22.0085C36.4444 24.2042 36.4444 17.617 36.4444 15.4213C36.4444 11.7496 38.2635 0.97617 43.7307 4.01349C46.907 5.77813 46.3802 10.4927 46.3802 13.8022" stroke="white" stroke-width="4" stroke-linecap="round"/>
</svg>
