<svg width="106" height="95" viewBox="0 0 106 95" fill="none" xmlns="http://www.w3.org/2000/svg">
<path d="M25.8149 3.43233C41.6093 3.43233 57.4038 3.43233 73.1982 3.43233C75.2274 3.43233 77.2565 3.43233 79.2857 3.43233C81.7542 3.43233 88.4348 1.85137 86.6893 3.59685C84.5248 5.76138 85.7844 12.4404 85.7844 15.3193C85.7844 22.3823 84.6928 29.4799 83.1931 36.3786C81.857 42.5248 79.2812 50.2443 74.8435 54.682C69.7712 59.7543 62.0909 61.1808 55.0181 61.1808C48.8085 61.1808 40.1026 61.7176 36.18 55.8337C31.5591 48.9024 29.8845 41.616 27.8714 33.7873C26.5014 28.4592 25.8149 22.3199 25.8149 16.8C25.8149 13.7132 26.935 7.80356 25.6503 4.91306C25.0302 3.51777 25.3629 1.1333 23.2236 2.32178C21.4572 3.3031 19.6255 3.15454 17.712 3.47346C13.4764 4.17939 9.19385 4.17269 4.7556 4.17269C-0.747956 4.17269 3.44472 6.77594 4.92013 10.0956C6.51005 13.6729 7.01139 18.0944 9.19779 21.5301C11.7297 25.5088 13.5298 26.3697 17.6709 28.4402C19.672 29.4408 23.7059 31.5662 25.8149 31.5662" stroke="white" stroke-width="4" stroke-linecap="round"/>
<path d="M51.7276 61.1808C51.7276 71.4133 51.5252 81.4985 40.2108 85.6128C37.3945 86.6369 35.3063 88.6748 32.4781 89.6848C31.1478 90.1599 25.6984 93.308 29.5166 91.7003C32.5821 90.4096 38.1336 91.5357 41.4036 91.5357C46.0958 91.5357 50.6106 90.1608 55.2649 90.055C58.7855 89.975 62.2244 88.7004 65.63 88.5743C68.1462 88.4811 71.1082 89.0798 73.5683 88.5332C75.7527 88.0477 77.5604 87.9693 79.8614 87.8339C81.536 87.7354 76.1133 85.1501 75.0491 84.9136C64.8506 82.6473 64.721 70.5464 62.0927 62.6615" stroke="white" stroke-width="4" stroke-linecap="round"/>
<path d="M83.5635 33.047C85.1216 32.8522 88.6823 29.9274 89.8566 28.9338C93.1961 26.1081 96.0735 22.8452 99.4402 20.0906C103.931 16.4165 103.553 12.252 103.553 6.84629C103.553 1.64199 100.567 2.69202 96.1497 2.69202C91.9543 2.69202 87.7589 2.69202 83.5635 2.69202" stroke="white" stroke-width="4" stroke-linecap="round"/>
<path d="M44.324 25.6433C45.5386 24.2769 50.7897 21.3007 50.9873 19.7204C51.1564 18.3675 56.9234 12.2082 58.2264 13.2217C60.8767 15.283 67.1554 11.4871 64.1493 17.4993C62.535 20.728 62.0927 24.9497 62.0927 28.6048C62.0927 30.3323 62.6045 39.1939 60.9411 39.6691C59.9007 39.9664 51.0695 38.8335 51.0695 38.5586C51.0695 36.4598 52.468 34.2153 52.468 31.9364C52.468 30.5656 52.9352 28.1683 53.2495 26.7539C54.1619 22.648 56.1698 18.7428 56.1698 14.5379" stroke="white" stroke-width="4" stroke-linecap="round"/>
<path d="M41.905 38.257L69.8023 40.806" stroke="white" stroke-width="4" stroke-linecap="round"/>
</svg>
